<svg xmlns="http://www.w3.org/2000/svg" xmlns:xlink="http://www.w3.org/1999/xlink" width="71.795" height="71.795" viewBox="0 0 71.795 71.795"><defs><filter id="a" x="0" y="0" width="71.795" height="71.795" filterUnits="userSpaceOnUse"><feOffset dy="3" input="SourceAlpha"/><feGaussianBlur stdDeviation="3" result="b"/><feFlood flood-opacity="0.161"/><feComposite operator="in" in2="b"/><feComposite in="SourceGraphic"/></filter><filter id="c" x="0" y="0" width="71.795" height="71.795" filterUnits="userSpaceOnUse"><feOffset input="SourceAlpha"/><feGaussianBlur stdDeviation="3" result="d"/><feFlood flood-color="#fff" flood-opacity="0.2" result="e"/><feComposite operator="out" in="SourceGraphic" in2="d"/><feComposite operator="in" in="e"/><feComposite operator="in" in2="SourceGraphic"/></filter><linearGradient id="f" x1="0.271" x2="0.5" y2="1" gradientUnits="objectBoundingBox"><stop offset="0" stop-color="#ff1e56"/><stop offset="1" stop-color="#844c94"/></linearGradient></defs><g transform="translate(1 -2)"><g data-type="innerShadowGroup"><g transform="matrix(1, 0, 0, 1, -1, 2)" filter="url(#a)"><rect width="53.795" height="53.795" rx="26.897" transform="translate(9 6)"/></g><g transform="matrix(1, 0, 0, 1, -1, 2)" filter="url(#c)"><rect width="53.795" height="53.795" rx="26.897" transform="translate(9 6)" fill="#fff"/></g></g><path d="M34.265,22.986a.841.841,0,0,1,.5.875l-.816,6.527H41.4a.841.841,0,0,1,.646,1.379L32.708,42.974a.841.841,0,0,1-1.48-.642l.816-6.527H24.591a.841.841,0,0,1-.646-1.379l9.339-11.207A.84.84,0,0,1,34.265,22.986ZM26.385,34.124H33a.841.841,0,0,1,.834.945L33.252,39.7l6.355-7.626H33a.841.841,0,0,1-.834-.945L32.74,26.5Z" transform="translate(1.901 1.801)" fill-rule="evenodd" fill="url(#f)"/><rect width="53" height="53" rx="26.5" transform="translate(8.5 8.295)" fill="none" stroke="rgba(112,112,112,0.15)" stroke-width="1"/><rect width="53" height="53" rx="26.5" transform="translate(8.5 8.295)" fill="none"/></g></svg>