<svg xmlns="http://www.w3.org/2000/svg" xmlns:xlink="http://www.w3.org/1999/xlink" width="62.473" height="58.574" viewBox="0 0 62.473 58.574"><defs><linearGradient id="a" x1="0.064" y1="0.175" x2="0.651" y2="0.868" gradientUnits="objectBoundingBox"><stop offset="0" stop-color="#ff1e56"/><stop offset="1" stop-color="#844c94"/></linearGradient></defs><g transform="translate(0.002 0)"><path d="M30.951,4.255A8.786,8.786,0,0,1,36.6.173a8.966,8.966,0,0,1,5.841.839,9.757,9.757,0,0,1,4.168,4.006A8.612,8.612,0,0,1,47.4,7.041a9.16,9.16,0,0,1,3.106.5,12.111,12.111,0,0,1,5.251,3.645A11.742,11.742,0,0,1,58.5,17.456a11.044,11.044,0,0,1-.163,3.426,13.18,13.18,0,0,1,2.613,3.167,10.694,10.694,0,0,1,1.515,5.709,10.24,10.24,0,0,1-2.079,5.851,14.177,14.177,0,0,1-3.421,3.238,12.955,12.955,0,0,1-2.237,7.93,10.387,10.387,0,0,1-6.547,4.463,10.133,10.133,0,0,1-11.854,6.989,8.224,8.224,0,0,1-5.139-4.26A8.9,8.9,0,0,1,25.319,58.4a9.25,9.25,0,0,1-7.483-1.881,9.085,9.085,0,0,1-3.35-5.165,9.386,9.386,0,0,1-2.608-.5A12.032,12.032,0,0,1,6.73,47.326a11.764,11.764,0,0,1-2.8-6.044,11.085,11.085,0,0,1,.122-3.762,13.111,13.111,0,0,1-2.364-2.826A10.649,10.649,0,0,1,0,28.888a10.436,10.436,0,0,1,2.1-6.1,14.494,14.494,0,0,1,3.3-3.192c-.015-.376-.015-.752-.005-1.123a12.781,12.781,0,0,1,2.842-7.64,10.06,10.06,0,0,1,6.232-3.716h.01a8.335,8.335,0,0,1,.3-1A9.5,9.5,0,0,1,18.934,1.3,9.054,9.054,0,0,1,25.294.173a8.766,8.766,0,0,1,5.658,4.082Zm16.333,6.873a9.3,9.3,0,0,1-1.85,3.3,1.959,1.959,0,0,1-3-2.521,4.322,4.322,0,0,0,.712-5.032A5.783,5.783,0,0,0,40.67,4.519a5.047,5.047,0,0,0-3.274-.5c-1.464.3-2.882,1.439-3.863,3.741a2.138,2.138,0,0,1,.025.315V48.581a2.972,2.972,0,0,1,.076.3c.564,3.431,2.049,5.083,3.716,5.541a5.747,5.747,0,0,0,4.727-1.088,5.2,5.2,0,0,0,2.389-3.98c.015-1.744-1.266-3.716-4.692-5.465a1.972,1.972,0,1,1,1.794-3.513c3.782,1.932,5.775,4.3,6.507,6.695a6.687,6.687,0,0,0,3.289-2.613,8.969,8.969,0,0,0,1.454-6.252,2.041,2.041,0,0,1,.966-2.186A10.815,10.815,0,0,0,57.1,33.184a6.213,6.213,0,0,0,1.286-3.538,6.624,6.624,0,0,0-.971-3.538,9.533,9.533,0,0,0-2.531-2.786,2.038,2.038,0,0,1-.8-2.348,7.13,7.13,0,0,0,.351-3.08,7.669,7.669,0,0,0-1.8-4.067A7.941,7.941,0,0,0,49.2,11.412a4.916,4.916,0,0,0-1.911-.285ZM14.664,47.29c.783-2.46,2.847-4.916,6.74-6.9A1.972,1.972,0,0,1,23.2,43.9c-3.609,1.845-4.966,3.96-4.966,5.805a4.846,4.846,0,0,0,2.013,3.716,5.3,5.3,0,0,0,4.25,1.123c1.84-.381,3.614-2.084,4.534-5.79V9.77C28.11,6.09,26.336,4.4,24.5,4.016a5.122,5.122,0,0,0-3.594.676,5.529,5.529,0,0,0-2.425,2.781c-.564,1.525-.229,3.4,1.677,5.165A1.957,1.957,0,0,1,17.5,15.509a9.947,9.947,0,0,1-2.857-4.285,6.222,6.222,0,0,0-3.253,2.186,8.679,8.679,0,0,0-1.916,5.2,10.03,10.03,0,0,0,.091,1.723H9.561a2.033,2.033,0,0,1-.945,2.008,11.2,11.2,0,0,0-3.223,2.852,6.416,6.416,0,0,0-1.322,3.736,6.781,6.781,0,0,0,1.062,3.624A9.227,9.227,0,0,0,7.5,35.1a2.04,2.04,0,0,1,.778,2.333,7.088,7.088,0,0,0-.325,3.289,7.705,7.705,0,0,0,1.845,3.94,7.946,7.946,0,0,0,3.38,2.333,4.914,4.914,0,0,0,1.489.3Zm.447-27.7a1.963,1.963,0,1,1,2.75,2.8,8.855,8.855,0,0,0-2.653,5.978,9.71,9.71,0,0,0,2.176,6.471,1.963,1.963,0,0,1-3.06,2.46,13.574,13.574,0,0,1-3.04-9.084,12.785,12.785,0,0,1,3.828-8.626Zm27.846,1.886a1.965,1.965,0,1,1,2.308-3.182,12.943,12.943,0,0,1,1.108.9,12.762,12.762,0,0,1,4.209,8.5A13.533,13.533,0,0,1,48,36.747a14.276,14.276,0,0,1-.935,1.154,1.965,1.965,0,0,1-2.923-2.628,10.318,10.318,0,0,0,.676-.834A9.645,9.645,0,0,0,46.664,28a8.828,8.828,0,0,0-2.918-5.886,9.822,9.822,0,0,0-.788-.64Z" fill="url(#a)"/></g></svg>