<svg xmlns="http://www.w3.org/2000/svg" xmlns:xlink="http://www.w3.org/1999/xlink" width="53.118" height="53.109" viewBox="0 0 53.118 53.109"><defs><linearGradient id="a" x1="-0.092" y1="0.253" x2="0.731" y2="0.885" gradientUnits="objectBoundingBox"><stop offset="0" stop-color="#ff1e56"/><stop offset="1" stop-color="#844c94"/></linearGradient></defs><path d="M48.482,29.361l1.91,1.91a1.3,1.3,0,0,1,0,1.828l-1.539,1.539a10.277,10.277,0,0,1,.955,2.528H51.8a1.3,1.3,0,0,1,1.3,1.3v2.7a1.3,1.3,0,0,1-1.3,1.3H49.64a10.212,10.212,0,0,1-1.124,2.472l1.409,1.409a1.3,1.3,0,0,1,0,1.832l-1.91,1.91a1.3,1.3,0,0,1-1.828,0l-1.539-1.539a10.372,10.372,0,0,1-2.55.955v1.992a1.3,1.3,0,0,1-1.3,1.3H38.088a1.3,1.3,0,0,1-1.3-1.3V49.332A10.372,10.372,0,0,1,34.32,48.2l-1.413,1.409a1.3,1.3,0,0,1-1.828,0l-1.91-1.91a1.3,1.3,0,0,1,0-1.828l1.539-1.539a10.173,10.173,0,0,1-.955-2.545H27.76a1.3,1.3,0,0,1-1.3-1.3v-2.7a1.3,1.3,0,0,1,1.3-1.3h2.161a10.255,10.255,0,0,1,1.128-2.476l-1.413-1.409a1.3,1.3,0,0,1,0-1.828l1.91-1.91a1.3,1.3,0,0,1,1.828,0l1.543,1.539a10.3,10.3,0,0,1,2.545-.955V27.469a1.3,1.3,0,0,1,1.3-1.3h2.718a1.3,1.3,0,0,1,1.3,1.3v2.161a10.177,10.177,0,0,1,2.476,1.128l1.413-1.4a1.3,1.3,0,0,1,1.832,0ZM7.768,11.751a46.271,46.271,0,0,0,14.058,1.927A45.7,45.7,0,0,0,35.9,11.751C39.031,10.7,40.967,9.439,40.967,8.2S39.031,5.7,35.9,4.65A46.258,46.258,0,0,0,21.839,2.718,46.411,46.411,0,0,0,7.768,4.65C1.134,6.867.948,9.469,7.768,11.751ZM21.243,41.056A48.349,48.349,0,0,1,6.921,38.981a17.231,17.231,0,0,1-4.183-1.966v8.146c.246,1.154,2.126,2.316,5.043,3.289a46.259,46.259,0,0,0,14.058,1.932c.929,0,1.845,0,2.74-.065a6.6,6.6,0,0,0,.864,1.093h0L26.934,52.9c-1.642.138-3.358.212-5.121.212A49.02,49.02,0,0,1,6.895,51.03C4.868,50.356-.02,48.13-.02,45.473v-.864Q.019,26.4-.011,8.211c0-2.55,2.649-4.7,6.915-6.132A49.222,49.222,0,0,1,21.839,0,49.02,49.02,0,0,1,36.757,2.079c3.846,1.284,6.448,3.2,6.88,5.445a1.344,1.344,0,0,1,.078.458V21.319a6.483,6.483,0,0,0-2.239-.393h-.514a.8.8,0,0,0,0-.1h0v-8.5a17.351,17.351,0,0,1-4.227,2,48.647,48.647,0,0,1-14.9,2.1A49.1,49.1,0,0,1,6.9,14.322,17.23,17.23,0,0,1,2.72,12.351v8.73c.246,1.158,2.126,2.321,5.043,3.293a46.258,46.258,0,0,0,14.058,1.932c1.768,0,3.483-.078,5.113-.22l-.7.709c-.1.086-.194.173-.29.268a6.483,6.483,0,0,0-1.318,1.893c-.912.039-1.845.06-2.787.06A49.019,49.019,0,0,1,6.916,26.937a17.231,17.231,0,0,1-4.179-1.958v8.146c.246,1.154,2.126,2.312,5.03,3.289A45.587,45.587,0,0,0,21.2,38.342V40.5a4.106,4.106,0,0,0,.026.566Zm18.54-6.884a5.311,5.311,0,1,1-5.316,5.311,5.311,5.311,0,0,1,5.316-5.311Z" transform="translate(0.02)" fill-rule="evenodd" fill="url(#a)"/></svg>