<svg xmlns="http://www.w3.org/2000/svg" xmlns:xlink="http://www.w3.org/1999/xlink" width="53.442" height="41.897" viewBox="0 0 53.442 41.897"><defs><linearGradient id="a" x2="0.75" y2="1" gradientUnits="objectBoundingBox"><stop offset="0" stop-color="#ff1e56"/><stop offset="1" stop-color="#844c94"/></linearGradient></defs><path d="M3.618,0H49.824a3.734,3.734,0,0,1,3.618,3.819V38.078A3.734,3.734,0,0,1,49.824,41.9H3.618A3.734,3.734,0,0,1,0,38.078V3.819A3.734,3.734,0,0,1,3.618,0ZM21.771,29.128a1.589,1.589,0,0,1,.136,2.156,1.4,1.4,0,0,1-2.043.143l-5.5-5.089a1.571,1.571,0,0,1,.007-2.307l5.5-5.084a1.4,1.4,0,0,1,2.043.144,1.589,1.589,0,0,1-.136,2.156l-4.261,3.94,4.261,3.94Zm11.806,2.3a1.4,1.4,0,0,1-2.043-.143,1.589,1.589,0,0,1,.136-2.156l4.261-3.94-4.261-3.94a1.589,1.589,0,0,1-.136-2.156,1.4,1.4,0,0,1,2.043-.144l5.5,5.084a1.573,1.573,0,0,1,.143.15,1.589,1.589,0,0,1-.136,2.157Zm-6.884-13.7a1.451,1.451,0,0,1,1.742-1.144,1.537,1.537,0,0,1,1.083,1.839L26.375,32.644a1.451,1.451,0,0,1-1.742,1.145,1.537,1.537,0,0,1-1.083-1.839l3.145-14.219ZM2.3,10.693V38.45a1.084,1.084,0,0,0,.292.748.972.972,0,0,0,.709.309H50.29A.972.972,0,0,0,51,39.2a1.084,1.084,0,0,0,.292-.748V10.693Zm44.081-6.4a1.839,1.839,0,0,1,1.787,1.886,1.79,1.79,0,1,1-3.574,0,1.839,1.839,0,0,1,1.787-1.886Zm-12.111,0a1.839,1.839,0,0,1,1.787,1.886,1.789,1.789,0,1,1-3.573,0A1.839,1.839,0,0,1,34.27,4.293Zm6.056,0a1.839,1.839,0,0,1,1.787,1.886,1.79,1.79,0,1,1-3.574,0,1.839,1.839,0,0,1,1.787-1.886Z" fill-rule="evenodd" fill="url(#a)"/></svg>