<svg xmlns="http://www.w3.org/2000/svg" xmlns:xlink="http://www.w3.org/1999/xlink" width="55.928" height="55.134" viewBox="0 0 55.928 55.134"><defs><linearGradient id="a" x1="-0.112" x2="0.712" y2="1.058" gradientUnits="objectBoundingBox"><stop offset="0" stop-color="#ff1e56"/><stop offset="1" stop-color="#844c94"/></linearGradient></defs><path d="M33.864,29.943H52.719a3.214,3.214,0,0,1,3.209,3.209V51.925a3.216,3.216,0,0,1-3.209,3.209H33.864a3.215,3.215,0,0,1-3.209-3.209V33.152a3.214,3.214,0,0,1,3.209-3.209ZM3.21,0H22.065a3.214,3.214,0,0,1,3.209,3.21V21.982a3.214,3.214,0,0,1-3.209,3.209H3.21A3.194,3.194,0,0,1,.948,24.25l0,0,0,0A3.2,3.2,0,0,1,0,21.982V3.21A3.2,3.2,0,0,1,.942.942C.984.9,1.029.859,1.074.822A3.189,3.189,0,0,1,3.21,0Zm18.7,3.367H3.367V21.824h18.54V3.367ZM33.864,0H52.719a3.215,3.215,0,0,1,3.209,3.21V21.982a3.215,3.215,0,0,1-3.209,3.209H33.864a3.214,3.214,0,0,1-3.209-3.209V3.21A3.214,3.214,0,0,1,33.864,0Zm18.7,3.367H34.022V21.824h18.54V3.367ZM3.21,29.943H22.065a3.214,3.214,0,0,1,3.209,3.209V51.925a3.215,3.215,0,0,1-3.209,3.209H3.21a3.192,3.192,0,0,1-2.262-.942l0,0,0,0A3.193,3.193,0,0,1,0,51.925V33.152a3.2,3.2,0,0,1,.942-2.268,1.723,1.723,0,0,1,.132-.12,3.188,3.188,0,0,1,2.136-.822Zm18.7,3.367H3.367V51.767h18.54V33.31Zm30.655,0H34.022V51.767h18.54V33.31Z" transform="translate(0 0)" fill="url(#a)"/></svg>