<svg xmlns="http://www.w3.org/2000/svg" xmlns:xlink="http://www.w3.org/1999/xlink" width="50.617" height="49.614" viewBox="0 0 50.617 49.614"><defs><linearGradient id="a" x1="-0.074" y1="0.169" x2="0.882" y2="1.113" gradientUnits="objectBoundingBox"><stop offset="0" stop-color="#ff1e56"/><stop offset="1" stop-color="#844c94"/></linearGradient></defs><path d="M2.253,0h46.11a2.465,2.465,0,0,1,2.253,2.622V46.992a2.465,2.465,0,0,1-2.253,2.622H2.253A2.465,2.465,0,0,1,0,46.992V2.622A2.465,2.465,0,0,1,2.253,0ZM13.117,18.476,20.445,27.3l.882,1.021-.873,1.035-7.4,9.13-2.089-2.4,6.53-7.74L11.045,20.9l2.072-2.42ZM38.765,38.059H22.53V34.78H38.765v3.278ZM15.733,4.711a2.6,2.6,0,0,1,2.381,2.77,2.6,2.6,0,0,1-2.381,2.77,2.6,2.6,0,0,1-2.381-2.77,2.6,2.6,0,0,1,2.381-2.77Zm-7.926,0a2.6,2.6,0,0,1,2.381,2.77,2.6,2.6,0,0,1-2.381,2.77,2.6,2.6,0,0,1-2.381-2.77,2.6,2.6,0,0,1,2.381-2.77ZM3.086,2.593H47.54a.942.942,0,0,1,.861,1v8.78H2.225V3.595a.942.942,0,0,1,.861-1Z" fill-rule="evenodd" fill="url(#a)"/></svg>