<svg xmlns="http://www.w3.org/2000/svg" xmlns:xlink="http://www.w3.org/1999/xlink" width="51.3" height="51.344" viewBox="0 0 51.3 51.344"><defs><linearGradient id="a" x2="0.734" y2="1" gradientUnits="objectBoundingBox"><stop offset="0" stop-color="#ff1e56"/><stop offset="1" stop-color="#844c94"/></linearGradient></defs><path d="M21.723,15.624a1.987,1.987,0,1,1,3.975,0v12.1l8.281,3.64A1.985,1.985,0,0,1,32.38,35l-9.368-4.118a1.988,1.988,0,0,1-1.289-1.861ZM.93,15.383a2.148,2.148,0,0,1-.083-.593L.863,7.434a2.147,2.147,0,0,1,4.294,0l-.006,2.791A25.647,25.647,0,0,1,49,15.052a2,2,0,0,1,.141.318A25.635,25.635,0,0,1,36.994,48.653c-.038.022-.076.042-.116.062A25.66,25.66,0,0,1,33,50.248a1.932,1.932,0,1,1-1.117-3.7,22.513,22.513,0,0,0,2.572-.962c.041-.021.084-.04.127-.058q.3-.137.6-.283c.053-.026.107-.05.162-.071a21.806,21.806,0,0,0,10.213-28.4v0A21.792,21.792,0,0,0,8.2,12.578l1.713-.1a2.151,2.151,0,0,1,.235,4.3l-6.985.395A2.15,2.15,0,0,1,.93,15.383Zm23.812,35.96a1.932,1.932,0,1,0,.14-3.862,21.953,21.953,0,0,1-3.526-.4,1.931,1.931,0,1,0-.755,3.788,25.687,25.687,0,0,0,4.141.475ZM12.807,47.914a1.932,1.932,0,1,0,1.959-3.33,21.686,21.686,0,0,1-2.9-2.032A1.932,1.932,0,1,0,9.389,45.52a25.567,25.567,0,0,0,3.418,2.394ZM3.923,39.265A1.932,1.932,0,1,0,7.2,37.22a22.117,22.117,0,0,1-1.634-3.149A1.932,1.932,0,0,0,2,35.564,25.7,25.7,0,0,0,3.923,39.265ZM.066,27.473A1.932,1.932,0,1,0,3.92,27.2a22.066,22.066,0,0,1,.032-3.547A1.931,1.931,0,1,0,.105,23.3a25.756,25.756,0,0,0-.039,4.17Z" transform="translate(0 0)" fill="url(#a)"/></svg>